<!--?xml version="1.0" standalone="no"?-->
              <svg id="sw-js-blob-svg" viewBox="0 0 100 100" xmlns="http://www.w3.org/2000/svg" version="1.1">
                    <defs> 
                        <linearGradient id="sw-gradient" x1="0" x2="1" y1="1" y2="0">
                            <stop id="stop1" stop-color="rgba(248, 117, 55, 1)" offset="0%"></stop>
                            <stop id="stop2" stop-color="rgba(246.391, 159.804, 16.883, 1)" offset="100%"></stop>
                        </linearGradient>
                    </defs>
                <path fill="url(#sw-gradient)" d="M24.9,-29.3C30.7,-24.8,32.7,-15.5,32.4,-7.1C32.2,1.2,29.7,8.4,25.6,14.2C21.6,19.9,15.9,24,9.1,27.5C2.4,31,-5.5,33.9,-11.5,31.7C-17.5,29.4,-21.7,22.2,-26.1,14.9C-30.5,7.6,-35.1,0.3,-35,-7.2C-34.9,-14.7,-30.1,-22.4,-23.5,-26.7C-16.9,-31,-8.4,-31.8,0.6,-32.5C9.6,-33.2,19.1,-33.7,24.9,-29.3Z" width="100%" height="100%" transform="translate(50 50)" stroke-width="0" style="transition: all 0.3s ease 0s;" stroke="url(#sw-gradient)"></path>
              </svg>